# Blender 4.0.2
# www.blender.org
o Blockout
v -21.984093 0.000000 10.000000
v 10.000000 0.000000 10.000000
v -21.984093 0.000000 -17.019817
v 10.000000 0.000000 -17.019817
v -21.984093 6.830729 10.000000
v 10.000000 6.830729 10.000000
v -21.984093 6.830729 -17.019817
v 10.000000 6.830729 -17.019817
v -1.523486 0.000000 10.000000
v -3.023882 0.000000 6.000000
v -3.023882 1.506051 6.000000
v 10.000000 0.000000 10.000000
v 10.000000 0.000000 6.000000
v 7.080516 0.000000 6.000000
v 7.080516 1.506051 6.000000
v 7.080516 0.000000 10.000000
v 10.000000 0.000000 -10.000000
v 7.080516 0.000000 -10.000000
v 7.080516 1.506051 -7.051466
v 7.080516 0.000000 -7.051466
v 10.000000 0.000000 -7.051466
v -5.290205 0.000000 -10.000000
v -5.290205 0.000000 -7.051466
v -3.023882 1.506051 -7.051466
v -3.023882 0.000000 -7.051466
v -3.023882 0.000000 -10.000000
v -5.290205 0.000000 10.000000
v -5.290205 0.000000 6.000000
v -3.023882 1.506051 9.568411
v -2.593913 1.074461 10.000000
v 9.568411 1.506051 9.568411
v 10.000000 1.074461 10.000000
v 10.000000 1.074461 6.000000
v 9.568411 1.506051 6.000000
v 7.080516 1.074461 10.000000
v 7.080516 1.506051 9.568411
v 7.080516 1.074461 -10.000000
v 7.080516 1.506051 -9.568411
v 9.568411 1.506051 -9.568411
v 10.000000 1.074461 -10.000000
v 10.000000 1.074461 -7.051466
v 9.568411 1.506051 -7.051466
v -4.858615 1.506051 -9.568411
v -5.290205 1.074461 -10.000000
v -5.290205 1.074461 -7.051466
v -4.858615 1.506051 -7.051466
v -3.023882 1.506051 -9.568411
v -3.023882 1.074461 -10.000000
v -4.858615 1.506051 9.568411
v -5.290205 1.074461 10.000000
v -5.290205 1.074461 6.000000
v -4.858615 1.506051 6.000000
v -2.008086 1.454430 8.559086
v -2.008086 3.454430 8.559086
v -2.008086 1.454430 6.559085
v -2.008086 3.454430 6.559085
v -0.008086 1.454430 8.559086
v -0.008086 3.454430 8.559086
v -0.008086 1.454430 6.559085
v -0.008086 3.454430 6.559085
v -1.008086 1.454430 6.559085
v -1.008086 3.454430 6.559085
v -1.008086 1.454430 8.559086
v -1.008086 3.454430 8.559086
v -2.008086 3.969571 8.559086
v -2.008086 3.969571 6.559085
v -1.008086 3.969571 8.559086
v -1.008086 3.969571 6.559085
v 4.002683 1.343933 6.682971
v 4.197773 1.343933 6.702186
v 4.385366 1.343933 6.759091
v 4.558253 1.343933 6.851501
v 4.709790 1.343933 6.975864
v 4.834153 1.343933 7.127401
v 4.926563 1.343933 7.300288
v 4.983469 1.343933 7.487881
v 5.002683 1.343933 7.682971
v 4.983469 1.343933 7.878061
v 4.926563 1.343933 8.065655
v 4.834153 1.343933 8.238542
v 4.709790 1.343933 8.390078
v 4.558253 1.343933 8.514441
v 4.385366 1.343933 8.606851
v 4.197773 1.343933 8.663756
v 4.002683 1.343933 8.682971
v 3.807593 1.343933 8.663756
v 3.620000 1.343933 8.606851
v 3.447113 1.343933 8.514441
v 3.295576 1.343933 8.390078
v 3.171214 1.343933 8.238542
v 3.078804 1.343933 8.065655
v 3.021898 1.343933 7.878061
v 3.002683 1.343933 7.682971
v 3.021898 1.343933 7.487881
v 3.078804 1.343933 7.300288
v 3.171214 1.343933 7.127401
v 3.295576 1.343933 6.975864
v 3.447113 1.343933 6.851501
v 3.620000 1.343933 6.759091
v 3.807593 1.343933 6.702186
v 4.002683 3.343933 7.682971
v -3.406566 2.486795 -4.288749
v -3.406566 2.486795 -2.288749
v -3.211476 2.467581 -4.288749
v -3.211476 2.467581 -2.288749
v -3.023882 2.410675 -4.288749
v -3.023882 2.410675 -2.288749
v -2.850996 2.120403 -4.288749
v -2.850996 2.120403 -2.288749
v -2.699459 1.996040 -4.288749
v -2.699459 1.996040 -2.288749
v -2.575096 2.042366 -4.288749
v -2.575096 2.042366 -2.288749
v -2.482687 1.869479 -4.288749
v -2.482687 1.869479 -2.288749
v -2.425781 1.681886 -4.288749
v -2.425781 1.681886 -2.288749
v -2.406566 1.486795 -4.288749
v -2.406566 1.486795 -2.288749
v -2.425781 1.291705 -4.288749
v -2.425781 1.291705 -2.288749
v -2.482687 1.104112 -4.288749
v -2.482687 1.104112 -2.288749
v -2.575096 0.931225 -4.288749
v -2.575096 0.931225 -2.288749
v -2.699459 0.779689 -4.288749
v -2.699459 0.779689 -2.288749
v -2.850996 0.655326 -4.288749
v -2.850996 0.655326 -2.288749
v -3.023882 0.562916 -4.288749
v -3.023882 0.562916 -2.288749
v -3.211476 0.506010 -4.288749
v -3.211476 0.506010 -2.288749
v -3.406566 0.486796 -4.288749
v -3.406566 0.486795 -2.288749
v -3.601656 0.506010 -4.288749
v -3.601656 0.506010 -2.288749
v -3.789249 0.562916 -4.288749
v -3.789249 0.562916 -2.288749
v -3.962136 0.655326 -4.288749
v -3.962136 0.655326 -2.288749
v -4.113673 0.779689 -4.288749
v -4.113673 0.779689 -2.288749
v -4.238036 0.931225 -4.288749
v -4.238036 0.931225 -2.288749
v -4.330445 1.104112 -4.288749
v -4.330445 1.104112 -2.288749
v -4.387351 1.291705 -4.288749
v -4.387351 1.291705 -2.288749
v -4.406566 1.486795 -4.288749
v -4.406566 1.486795 -2.288749
v -4.387351 1.681886 -4.288749
v -4.387351 1.681886 -2.288749
v -4.330445 1.869479 -4.288749
v -4.330445 1.869479 -2.288749
v -4.238036 2.042366 -4.288749
v -4.238036 2.042366 -2.288749
v -4.113673 2.193902 -4.288749
v -4.113673 2.193902 -2.288749
v -3.962136 2.318265 -4.288749
v -3.962136 2.318265 -2.288749
v -3.789249 2.410675 -4.288749
v -3.789249 2.410675 -2.288749
v -3.601656 2.467581 -4.288749
v -3.601656 2.467581 -2.288749
vn -0.0000 1.0000 -0.0000
vn -0.0000 -0.0000 1.0000
vn -0.0000 -0.0000 -1.0000
vn -1.0000 -0.0000 -0.0000
vn 1.0000 -0.0000 -0.0000
vn -0.0000 -1.0000 -0.0000
vn 0.7071 0.7071 -0.0000
vn -0.0000 0.7071 0.7071
vn -0.0000 0.7071 -0.7071
vn -0.7071 0.7071 -0.0000
vn 0.0878 0.4455 -0.8910
vn 0.2599 0.4455 -0.8567
vn 0.4220 0.4455 -0.7896
vn 0.5680 0.4455 -0.6921
vn 0.6921 0.4455 -0.5680
vn 0.7896 0.4455 -0.4220
vn 0.8567 0.4455 -0.2599
vn 0.8910 0.4455 -0.0878
vn 0.8910 0.4455 0.0878
vn 0.8567 0.4455 0.2599
vn 0.7896 0.4455 0.4220
vn 0.6921 0.4455 0.5680
vn 0.5680 0.4455 0.6921
vn 0.4220 0.4455 0.7896
vn 0.2599 0.4455 0.8567
vn 0.0878 0.4455 0.8910
vn -0.0878 0.4455 0.8910
vn -0.2599 0.4455 0.8567
vn -0.4220 0.4455 0.7896
vn -0.5680 0.4455 0.6921
vn -0.6921 0.4455 0.5680
vn -0.7896 0.4455 0.4220
vn -0.8567 0.4455 0.2599
vn -0.8910 0.4455 0.0878
vn -0.8910 0.4455 -0.0878
vn -0.8567 0.4455 -0.2599
vn -0.7896 0.4455 -0.4220
vn -0.6921 0.4455 -0.5680
vn -0.5680 0.4455 -0.6921
vn -0.4220 0.4455 -0.7896
vn -0.2599 0.4455 -0.8567
vn -0.0878 0.4455 -0.8910
vn 0.0980 0.9952 -0.0000
vn 0.2903 0.9569 -0.0000
vn 0.8592 0.5117 -0.0000
vn 0.6344 0.7730 -0.0000
vn -0.3491 0.9371 -0.0000
vn 0.8819 0.4714 -0.0000
vn 0.9569 0.2903 -0.0000
vn 0.9952 0.0980 -0.0000
vn 0.9952 -0.0980 -0.0000
vn 0.9569 -0.2903 -0.0000
vn 0.8819 -0.4714 -0.0000
vn 0.7730 -0.6344 -0.0000
vn 0.6344 -0.7730 -0.0000
vn 0.4714 -0.8819 -0.0000
vn 0.2903 -0.9569 -0.0000
vn 0.0980 -0.9952 -0.0000
vn -0.0980 -0.9952 -0.0000
vn -0.2903 -0.9569 -0.0000
vn -0.4714 -0.8819 -0.0000
vn -0.6344 -0.7730 -0.0000
vn -0.7730 -0.6344 -0.0000
vn -0.8819 -0.4714 -0.0000
vn -0.9569 -0.2903 -0.0000
vn -0.9952 -0.0980 -0.0000
vn -0.9952 0.0980 -0.0000
vn -0.9569 0.2903 -0.0000
vn -0.8819 0.4714 -0.0000
vn -0.7730 0.6344 -0.0000
vn -0.6344 0.7730 -0.0000
vn -0.4714 0.8819 -0.0000
vn -0.2903 0.9569 -0.0000
vn -0.0980 0.9952 -0.0000
s 0
f 2//1 3//1 1//1
f 8//2 3//2 4//2
f 5//3 2//3 1//3
f 6//4 4//4 2//4
f 7//5 1//5 3//5
f 23//4 51//4 45//4
f 32//2 16//2 12//2
f 52//1 29//1 11//1
f 13//6 16//6 14//6
f 15//1 31//1 34//1
f 33//5 12//5 13//5
f 14//6 9//6 10//6
f 34//1 19//1 15//1
f 11//3 14//3 10//3
f 18//3 48//3 37//3
f 26//3 44//3 48//3
f 38//1 24//1 19//1
f 20//6 17//6 21//6
f 14//6 21//6 13//6
f 13//5 41//5 33//5
f 42//1 38//1 19//1
f 15//4 20//4 14//4
f 47//1 46//1 24//1
f 25//6 22//6 26//6
f 45//4 22//4 23//4
f 21//5 40//5 41//5
f 20//6 26//6 18//6
f 19//2 25//2 20//2
f 37//3 17//3 18//3
f 35//2 9//2 16//2
f 10//6 27//6 28//6
f 11//1 36//1 15//1
f 28//4 50//4 51//4
f 25//6 28//6 23//6
f 24//5 10//5 25//5
f 46//1 11//1 24//1
f 31//7 33//7 34//7
f 36//8 30//8 35//8
f 31//8 35//8 32//8
f 39//9 37//9 38//9
f 34//7 41//7 42//7
f 39//7 41//7 40//7
f 43//10 45//10 46//10
f 48//9 43//9 47//9
f 48//9 38//9 37//9
f 46//10 51//10 52//10
f 49//10 51//10 50//10
f 30//8 49//8 50//8
f 30//2 27//2 9//2
f 54//4 55//4 53//4
f 62//3 59//3 61//3
f 60//5 57//5 59//5
f 64//2 53//2 63//2
f 59//6 63//6 61//6
f 62//5 67//5 64//5
f 62//1 58//1 60//1
f 61//6 53//6 55//6
f 58//2 63//2 57//2
f 56//3 61//3 55//3
f 66//1 67//1 68//1
f 54//4 66//4 56//4
f 56//3 68//3 62//3
f 64//2 65//2 54//2
f 69//11 101//11 70//11
f 70//12 101//12 71//12
f 71//13 101//13 72//13
f 72//14 101//14 73//14
f 73//15 101//15 74//15
f 74//16 101//16 75//16
f 75//17 101//17 76//17
f 76//18 101//18 77//18
f 77//19 101//19 78//19
f 78//20 101//20 79//20
f 79//21 101//21 80//21
f 80//22 101//22 81//22
f 81//23 101//23 82//23
f 82//24 101//24 83//24
f 83//25 101//25 84//25
f 84//26 101//26 85//26
f 85//27 101//27 86//27
f 86//28 101//28 87//28
f 87//29 101//29 88//29
f 88//30 101//30 89//30
f 89//31 101//31 90//31
f 90//32 101//32 91//32
f 91//33 101//33 92//33
f 92//34 101//34 93//34
f 93//35 101//35 94//35
f 94//36 101//36 95//36
f 95//37 101//37 96//37
f 96//38 101//38 97//38
f 97//39 101//39 98//39
f 98//40 101//40 99//40
f 84//6 92//6 100//6
f 99//41 101//41 100//41
f 100//42 101//42 69//42
f 103//43 104//43 102//43
f 105//44 106//44 104//44
f 107//45 108//45 106//45
f 109//46 110//46 108//46
f 111//47 112//47 110//47
f 113//48 114//48 112//48
f 115//49 116//49 114//49
f 117//50 118//50 116//50
f 119//51 120//51 118//51
f 121//52 122//52 120//52
f 123//53 124//53 122//53
f 125//54 126//54 124//54
f 127//55 128//55 126//55
f 129//56 130//56 128//56
f 131//57 132//57 130//57
f 133//58 134//58 132//58
f 135//59 136//59 134//59
f 137//60 138//60 136//60
f 139//61 140//61 138//61
f 141//62 142//62 140//62
f 143//63 144//63 142//63
f 145//64 146//64 144//64
f 147//65 148//65 146//65
f 149//66 150//66 148//66
f 151//67 152//67 150//67
f 153//68 154//68 152//68
f 155//69 156//69 154//69
f 157//70 158//70 156//70
f 159//71 160//71 158//71
f 161//72 162//72 160//72
f 151//2 135//2 119//2
f 163//73 164//73 162//73
f 165//74 102//74 164//74
f 124//3 140//3 156//3
f 2//1 4//1 3//1
f 8//2 7//2 3//2
f 5//3 6//3 2//3
f 6//4 8//4 4//4
f 7//5 5//5 1//5
f 23//4 28//4 51//4
f 32//2 35//2 16//2
f 52//1 49//1 29//1
f 13//6 12//6 16//6
f 15//1 36//1 31//1
f 33//5 32//5 12//5
f 14//6 16//6 9//6
f 34//1 42//1 19//1
f 11//3 15//3 14//3
f 18//3 26//3 48//3
f 26//3 22//3 44//3
f 38//1 47//1 24//1
f 20//6 18//6 17//6
f 14//6 20//6 21//6
f 13//5 21//5 41//5
f 42//1 39//1 38//1
f 15//4 19//4 20//4
f 47//1 43//1 46//1
f 25//6 23//6 22//6
f 45//4 44//4 22//4
f 21//5 17//5 40//5
f 20//6 25//6 26//6
f 19//2 24//2 25//2
f 37//3 40//3 17//3
f 35//2 30//2 9//2
f 10//6 9//6 27//6
f 11//1 29//1 36//1
f 28//4 27//4 50//4
f 25//6 10//6 28//6
f 24//5 11//5 10//5
f 46//1 52//1 11//1
f 31//7 32//7 33//7
f 36//8 29//8 30//8
f 31//8 36//8 35//8
f 39//9 40//9 37//9
f 34//7 33//7 41//7
f 39//7 42//7 41//7
f 43//10 44//10 45//10
f 48//9 44//9 43//9
f 48//9 47//9 38//9
f 46//10 45//10 51//10
f 49//10 52//10 51//10
f 30//8 29//8 49//8
f 30//2 50//2 27//2
f 54//4 56//4 55//4
f 62//3 60//3 59//3
f 60//5 58//5 57//5
f 64//2 54//2 53//2
f 59//6 57//6 63//6
f 62//5 68//5 67//5
f 62//1 64//1 58//1
f 61//6 63//6 53//6
f 58//2 64//2 63//2
f 56//3 62//3 61//3
f 66//1 65//1 67//1
f 54//4 65//4 66//4
f 56//3 66//3 68//3
f 64//2 67//2 65//2
f 100//6 69//6 70//6
f 70//6 71//6 72//6
f 72//6 73//6 74//6
f 74//6 75//6 76//6
f 76//6 77//6 78//6
f 78//6 79//6 80//6
f 80//6 81//6 82//6
f 82//6 83//6 84//6
f 84//6 85//6 86//6
f 86//6 87//6 88//6
f 88//6 89//6 90//6
f 90//6 91//6 92//6
f 92//6 93//6 94//6
f 94//6 95//6 96//6
f 96//6 97//6 98//6
f 98//6 99//6 100//6
f 100//6 70//6 72//6
f 72//6 74//6 76//6
f 76//6 78//6 80//6
f 80//6 82//6 84//6
f 84//6 86//6 88//6
f 88//6 90//6 92//6
f 92//6 94//6 96//6
f 96//6 98//6 100//6
f 100//6 72//6 76//6
f 76//6 80//6 84//6
f 84//6 88//6 92//6
f 92//6 96//6 100//6
f 100//6 76//6 84//6
f 103//43 105//43 104//43
f 105//44 107//44 106//44
f 107//45 109//45 108//45
f 109//46 111//46 110//46
f 111//47 113//47 112//47
f 113//48 115//48 114//48
f 115//49 117//49 116//49
f 117//50 119//50 118//50
f 119//51 121//51 120//51
f 121//52 123//52 122//52
f 123//53 125//53 124//53
f 125//54 127//54 126//54
f 127//55 129//55 128//55
f 129//56 131//56 130//56
f 131//57 133//57 132//57
f 133//58 135//58 134//58
f 135//59 137//59 136//59
f 137//60 139//60 138//60
f 139//61 141//61 140//61
f 141//62 143//62 142//62
f 143//63 145//63 144//63
f 145//64 147//64 146//64
f 147//65 149//65 148//65
f 149//66 151//66 150//66
f 151//67 153//67 152//67
f 153//68 155//68 154//68
f 155//69 157//69 156//69
f 157//70 159//70 158//70
f 159//71 161//71 160//71
f 161//72 163//72 162//72
f 107//2 105//2 103//2
f 103//2 165//2 163//2
f 163//2 161//2 159//2
f 159//2 157//2 155//2
f 155//2 153//2 151//2
f 151//2 149//2 147//2
f 147//2 145//2 143//2
f 143//2 141//2 139//2
f 139//2 137//2 135//2
f 135//2 133//2 131//2
f 131//2 129//2 127//2
f 127//2 125//2 123//2
f 123//2 121//2 119//2
f 119//2 117//2 115//2
f 115//2 113//2 111//2
f 109//2 107//2 103//2
f 119//2 115//2 111//2
f 111//2 109//2 103//2
f 103//2 163//2 159//2
f 159//2 155//2 151//2
f 151//2 147//2 143//2
f 143//2 139//2 135//2
f 135//2 131//2 127//2
f 127//2 123//2 119//2
f 119//2 111//2 103//2
f 103//2 159//2 151//2
f 151//2 143//2 135//2
f 135//2 127//2 119//2
f 119//2 103//2 151//2
f 163//73 165//73 164//73
f 165//74 103//74 102//74
f 164//3 102//3 104//3
f 104//3 106//3 108//3
f 110//3 112//3 114//3
f 164//3 104//3 108//3
f 110//3 114//3 116//3
f 164//3 108//3 110//3
f 160//3 162//3 164//3
f 156//3 158//3 160//3
f 152//3 154//3 156//3
f 148//3 150//3 152//3
f 144//3 146//3 148//3
f 140//3 142//3 144//3
f 136//3 138//3 140//3
f 132//3 134//3 136//3
f 128//3 130//3 132//3
f 124//3 126//3 128//3
f 120//3 122//3 124//3
f 116//3 118//3 120//3
f 164//3 110//3 116//3
f 156//3 160//3 164//3
f 148//3 152//3 156//3
f 140//3 144//3 148//3
f 132//3 136//3 140//3
f 124//3 128//3 132//3
f 116//3 120//3 124//3
f 156//3 164//3 116//3
f 140//3 148//3 156//3
f 124//3 132//3 140//3
f 156//3 116//3 124//3
